<svg width="34" height="34" viewBox="0 0 34 34" fill="none" xmlns="http://www.w3.org/2000/svg">
<g clip-path="url(#clip0_73_265)">
<path d="M17 13.9091V20.4927H26.1491C25.7473 22.61 24.5417 24.4028 22.7336 25.6082L28.2508 29.8891C31.4653 26.922 33.3199 22.5638 33.3199 17.3865C33.3199 16.1811 33.2118 15.0219 33.0108 13.9092L17 13.9091Z" fill="#100014"/>
<path d="M7.47221 20.2357L6.22786 21.1883L1.82324 24.6191C4.62051 30.1672 10.3537 34 16.9991 34C21.589 34 25.4371 32.4855 28.2499 29.8892L22.7327 25.6082C21.2181 26.6282 19.2863 27.2465 16.9991 27.2465C12.5791 27.2465 8.8238 24.2638 7.47916 20.2455L7.47221 20.2357Z" fill="#100014"/>
<path d="M1.8235 9.38086C0.664476 11.668 0 14.249 0 16.9998C0 19.7507 0.664476 22.3317 1.8235 24.6188C1.8235 24.6342 7.47996 20.2297 7.47996 20.2297C7.13997 19.2098 6.939 18.128 6.939 16.9997C6.939 15.8713 7.13997 14.7896 7.47996 13.7696L1.8235 9.38086Z" fill="#100014"/>
<path d="M16.9995 6.76909C19.5031 6.76909 21.7286 7.63452 23.5058 9.30363L28.374 4.43551C25.4221 1.68465 21.5895 0 16.9995 0C10.3541 0 4.62051 3.81727 1.82324 9.38092L7.47953 13.77C8.82399 9.75179 12.5795 6.76909 16.9995 6.76909Z" fill="#100014"/>
</g>
<defs>
<clipPath id="clip0_73_265">
<rect width="34" height="34" fill="white"/>
</clipPath>
</defs>
</svg>
