<svg width="42" height="34" xmlns="http://www.w3.org/2000/svg" xmlns:xlink="http://www.w3.org/1999/xlink" xml:space="preserve" overflow="hidden"><g transform="translate(-316 -360)"><path d="M13.0649 37.6507C28.7421 37.6507 37.3169 24.6623 37.3169 13.3987 37.3169 13.0299 37.3169 12.6626 37.292 12.297 38.9601 11.0903 40.4001 9.59645 41.5445 7.88501 39.9889 8.57431 38.3386 9.02627 36.6489 9.22604 38.4278 8.16114 39.7601 6.48491 40.3962 4.51155 38.7231 5.50432 36.8925 6.20408 34.9838 6.5805 33.3721 4.86671 31.1213 3.89374 28.7689 3.89374 24.0885 3.89374 20.2373 7.74504 20.2373 12.4253 20.2373 13.0746 20.3114 13.7218 20.4581 14.3543 13.6083 14.011 7.21746 10.771 2.89148 5.44882 0.641911 9.32138 1.80589 14.34 5.53036 16.827 4.17408 16.7868 2.84693 16.4209 1.66178 15.7601L1.66178 15.8681C1.66291 19.9101 4.538 23.4233 8.49998 24.2236 7.24521 24.5658 5.92836 24.6158 4.65136 24.3698 5.76519 27.8333 8.9771 30.2208 12.6146 30.2891 9.59694 32.6606 5.8671 33.9488 2.02903 33.945 1.35084 33.9437 0.673313 33.9026 0 33.822 3.89755 36.3232 8.43385 37.6502 13.0649 37.6441" transform="matrix(1.01096 0 0 1 316 356.188)"/></g></svg>