<svg width="47" height="34" xmlns="http://www.w3.org/2000/svg" xmlns:xlink="http://www.w3.org/1999/xlink" xml:space="preserve" overflow="hidden"><g transform="translate(-358 -355)"><path d="M46.0181 12.1874C45.4776 10.1651 43.8851 8.57273 41.8629 8.03223 38.1972 7.05 23.5 7.05 23.5 7.05 23.5 7.05 8.80268 7.05 5.13704 8.03223 3.11513 8.57273 1.52236 10.1651 0.981951 12.1874 9.78384e-16 15.8527 9.78384e-16 23.5003 9.78384e-16 23.5003 9.78384e-16 23.5003 9.78384e-16 31.1477 0.981951 34.8126 1.52236 36.8349 3.11513 38.4277 5.13704 38.9681 8.80268 39.95 23.5 39.95 23.5 39.95 23.5 39.95 38.1972 39.95 41.8629 38.9681 43.8851 38.4277 45.4776 36.8349 46.0181 34.8126 46.9999 31.1477 46.9999 23.5003 46.9999 23.5003 46.9999 23.5003 46.9999 15.8527 46.0181 12.1874ZM18.7997 30.5504 18.7997 16.4501 31.0105 23.5003 18.7997 30.5504Z" transform="matrix(1 0 0 1.01828 358 348.07)"/></g></svg>